<svg width="98" height="49" viewBox="0 0 98 49" fill="none" xmlns="http://www.w3.org/2000/svg">
<rect x="18" y="14" width="80" height="35" rx="17.5" fill="white"/>
<path d="M35.9064 37V26.8145H42.2296V28.1338H37.4445V31.4355H41.7716V32.748H37.4445V37H35.9064ZM43.1323 37V29.3574H44.6088V37H43.1323ZM43.8774 28.1816C43.6176 28.1816 43.3966 28.0951 43.2143 27.9219C43.032 27.7487 42.9409 27.5413 42.9409 27.2998C42.9409 27.0537 43.032 26.8441 43.2143 26.6709C43.3966 26.4977 43.6176 26.4111 43.8774 26.4111C44.1326 26.4111 44.3513 26.4977 44.5336 26.6709C44.7205 26.8441 44.8139 27.0537 44.8139 27.2998C44.8139 27.5413 44.7205 27.7487 44.5336 27.9219C44.3513 28.0951 44.1326 28.1816 43.8774 28.1816ZM47.2273 32.4678V37H45.7507V29.3574H47.1862V30.6152H47.2888C47.462 30.2005 47.7331 29.8724 48.1023 29.6309C48.4714 29.3848 48.9454 29.2617 49.5241 29.2617C50.0437 29.2617 50.4971 29.3711 50.8845 29.5898C51.2764 29.804 51.5795 30.1253 51.7937 30.5537C52.0124 30.9821 52.1218 31.513 52.1218 32.1465V37H50.6452V32.3242C50.6452 31.7728 50.4994 31.3398 50.2077 31.0254C49.9161 30.7064 49.5196 30.5469 49.0183 30.5469C48.6765 30.5469 48.3689 30.6243 48.0954 30.7793C47.8265 30.9297 47.6146 31.1462 47.4597 31.4287C47.3047 31.7113 47.2273 32.0576 47.2273 32.4678ZM55.4785 37.1641C54.9954 37.1641 54.5579 37.0752 54.166 36.8975C53.7741 36.7152 53.4642 36.4508 53.2363 36.1045C53.0085 35.7581 52.8945 35.3366 52.8945 34.8398C52.8945 34.4069 52.9766 34.0537 53.1406 33.7803C53.3092 33.5023 53.5348 33.2812 53.8174 33.1172C54.0999 32.9531 54.4144 32.8301 54.7607 32.748C55.1071 32.666 55.4626 32.6022 55.8271 32.5566C56.2874 32.5065 56.6589 32.4632 56.9414 32.4268C57.224 32.3903 57.429 32.3333 57.5566 32.2559C57.6888 32.1738 57.7549 32.0439 57.7549 31.8662V31.832C57.7549 31.3991 57.6318 31.0641 57.3857 30.8271C57.1442 30.5902 56.7842 30.4717 56.3057 30.4717C55.8089 30.4717 55.4147 30.5811 55.123 30.7998C54.8359 31.014 54.6377 31.2578 54.5283 31.5312L53.127 31.21C53.2956 30.7451 53.5394 30.3714 53.8584 30.0889C54.182 29.8018 54.5511 29.5921 54.9658 29.46C55.3851 29.3278 55.8226 29.2617 56.2783 29.2617C56.5837 29.2617 56.9072 29.2982 57.249 29.3711C57.5908 29.4395 57.9121 29.5693 58.2129 29.7607C58.5182 29.9476 58.7666 30.2165 58.958 30.5674C59.1494 30.9183 59.2451 31.3717 59.2451 31.9277V37H57.7891V35.9541H57.7344C57.6432 36.141 57.4997 36.3278 57.3037 36.5146C57.1123 36.7015 56.8662 36.8564 56.5654 36.9795C56.2646 37.1025 55.9023 37.1641 55.4785 37.1641ZM55.7998 35.9746C56.2145 35.9746 56.5677 35.8949 56.8594 35.7354C57.151 35.5713 57.3743 35.3571 57.5293 35.0928C57.6842 34.8285 57.7617 34.5482 57.7617 34.252V33.2607C57.707 33.3109 57.6045 33.3587 57.4541 33.4043C57.3037 33.4499 57.1328 33.4886 56.9414 33.5205C56.75 33.5524 56.5632 33.582 56.3809 33.6094C56.1986 33.6322 56.0459 33.6504 55.9229 33.6641C55.6357 33.7051 55.3737 33.7689 55.1367 33.8555C54.8997 33.9375 54.7083 34.0605 54.5625 34.2246C54.4212 34.3841 54.3506 34.596 54.3506 34.8604C54.3506 35.2295 54.4873 35.5075 54.7607 35.6943C55.0342 35.8812 55.3805 35.9746 55.7998 35.9746ZM61.8704 32.4678V37H60.3938V29.3574H61.8294V30.6152H61.9319C62.1051 30.2005 62.3762 29.8724 62.7454 29.6309C63.1145 29.3848 63.5885 29.2617 64.1673 29.2617C64.6868 29.2617 65.1402 29.3711 65.5276 29.5898C65.9195 29.804 66.2226 30.1253 66.4368 30.5537C66.6555 30.9821 66.7649 31.513 66.7649 32.1465V37H65.2884V32.3242C65.2884 31.7728 65.1425 31.3398 64.8509 31.0254C64.5592 30.7064 64.1627 30.5469 63.6614 30.5469C63.3196 30.5469 63.012 30.6243 62.7386 30.7793C62.4697 30.9297 62.2578 31.1462 62.1028 31.4287C61.9479 31.7113 61.8704 32.0576 61.8704 32.4678ZM71.1129 37.1572C70.3791 37.1572 69.7457 36.9886 69.2125 36.6514C68.6793 36.3141 68.2691 35.8493 67.982 35.2568C67.6949 34.6644 67.5513 33.9854 67.5513 33.2197C67.5513 32.4404 67.6972 31.7546 67.9888 31.1621C68.2851 30.5651 68.6975 30.1003 69.2261 29.7676C69.7593 29.4303 70.3837 29.2617 71.0992 29.2617C71.6825 29.2617 72.1998 29.3688 72.6509 29.583C73.1067 29.7926 73.4735 30.0911 73.7515 30.4785C74.0341 30.8659 74.2004 31.3171 74.2505 31.832H72.8013C72.7512 31.5905 72.6532 31.3695 72.5074 31.1689C72.3661 30.9684 72.1793 30.8089 71.9468 30.6904C71.7144 30.5719 71.4387 30.5127 71.1197 30.5127C70.705 30.5127 70.3427 30.6221 70.0328 30.8408C69.7274 31.055 69.4882 31.3626 69.315 31.7637C69.1418 32.1647 69.0552 32.6387 69.0552 33.1855C69.0552 33.737 69.1395 34.2178 69.3082 34.6279C69.4768 35.0381 69.716 35.3548 70.0259 35.5781C70.3404 35.7969 70.705 35.9062 71.1197 35.9062C71.5481 35.9062 71.9127 35.7878 72.2134 35.5508C72.5188 35.3138 72.7147 34.9902 72.8013 34.5801H74.2505C74.2004 35.0768 74.0409 35.5189 73.772 35.9062C73.5031 36.2936 73.1431 36.599 72.692 36.8223C72.2408 37.0456 71.7144 37.1572 71.1129 37.1572ZM78.3114 37.1572C77.564 37.1572 76.9168 36.9954 76.37 36.6719C75.8231 36.3483 75.4015 35.8926 75.1053 35.3047C74.8136 34.7122 74.6678 34.0218 74.6678 33.2334C74.6678 32.4495 74.8114 31.7591 75.0985 31.1621C75.3901 30.5651 75.798 30.1003 76.3221 29.7676C76.8508 29.4303 77.4705 29.2617 78.1815 29.2617C78.6144 29.2617 79.0337 29.3324 79.4393 29.4736C79.8449 29.6149 80.2095 29.8382 80.533 30.1436C80.8566 30.4489 81.1118 30.8454 81.2987 31.333C81.4901 31.8206 81.5858 32.4085 81.5858 33.0967V33.6299H75.5086V32.5156H80.8202L80.1297 32.8848C80.1297 32.4154 80.0568 32.0007 79.911 31.6406C79.7651 31.2806 79.5464 31.0003 79.2547 30.7998C78.9676 30.5947 78.6099 30.4922 78.1815 30.4922C77.7531 30.4922 77.3862 30.5947 77.0809 30.7998C76.7801 31.0049 76.55 31.276 76.3905 31.6133C76.231 31.9505 76.1512 32.3197 76.1512 32.7207V33.4795C76.1512 34.0036 76.2424 34.4479 76.4246 34.8125C76.6069 35.1771 76.8599 35.4551 77.1834 35.6465C77.5116 35.8379 77.8921 35.9336 78.325 35.9336C78.6076 35.9336 78.8628 35.8926 79.0907 35.8105C79.3231 35.7285 79.5236 35.6055 79.6922 35.4414C79.8608 35.2773 79.9885 35.0745 80.075 34.833L81.4832 35.0996C81.3693 35.5098 81.1688 35.8698 80.8817 36.1797C80.5946 36.4896 80.2323 36.7311 79.7948 36.9043C79.3618 37.0729 78.8674 37.1572 78.3114 37.1572Z" fill="black"/>
<path d="M20.5064 10.7756C21.1233 10.5357 21.4317 10.4157 21.5183 10.2461C21.5934 10.0992 21.5911 9.9247 21.5122 9.77978C21.4212 9.61251 21.1097 9.50069 20.4867 9.27705L4.59702 3.57305C4.08733 3.39008 3.83248 3.29859 3.66587 3.35629C3.52102 3.40645 3.40719 3.52029 3.35702 3.66514C3.29933 3.83175 3.39081 4.08659 3.57378 4.59629L9.27773 20.486C9.50137 21.109 9.61319 21.4205 9.78046 21.5115C9.92538 21.5904 10.0999 21.5927 10.2468 21.5176C10.4164 21.431 10.5364 21.1226 10.7763 20.5057L13.3731 13.8281C13.4201 13.7072 13.4436 13.6468 13.4799 13.5959C13.5121 13.5508 13.5515 13.5114 13.5966 13.4792C13.6475 13.4429 13.7079 13.4194 13.8288 13.3724L20.5064 10.7756Z" fill="white"/>
</svg>
