<svg width="20" height="20" viewBox="0 0 20 20" fill="none" xmlns="http://www.w3.org/2000/svg">
<g clip-path="url(#clip0_162_332)">
<path d="M9.99915 2.72644C8.99594 2.72644 8.18005 3.54232 8.18005 4.54553C8.18005 5.54874 8.99594 6.36458 9.99915 6.36458C11.0024 6.36458 11.8182 5.5487 11.8182 4.54553C11.8182 3.54236 11.0023 2.72644 9.99915 2.72644ZM9.99915 5.4555C9.49754 5.4555 9.08917 5.04714 9.08917 4.54553C9.08917 4.04393 9.49754 3.63556 9.99915 3.63556C10.5008 3.63556 10.9091 4.04393 10.9091 4.54553C10.9091 5.04714 10.5008 5.4555 9.99915 5.4555Z" fill="#596CF2"/>
<path d="M19.5455 8.18182C19.7967 8.18182 20 7.97974 20 7.72853V5.91055C20 5.75032 19.9157 5.60164 19.7776 5.51995L10.886 0.239522C10.882 0.236838 10.878 0.234622 10.874 0.232406C10.3214 -0.0738587 9.69815 -0.0831485 9.11353 0.238627L0.222401 5.51995C0.0843324 5.6016 0 5.75032 0 5.91055V7.72853C0 7.97974 0.20331 8.18182 0.45456 8.18182H1.8182V16.364C0.815413 16.364 0 17.1793 0 18.182V19.5455C0 19.7967 0.20331 20 0.45456 20H19.5455C19.7967 20 20 19.7968 20 19.5455V18.182C20 17.1793 19.1846 16.364 18.1818 16.364V8.18182H19.5455ZM19.0909 18.1818V19.0909H0.909077V18.1818C0.909077 17.6807 1.31702 17.2728 1.81815 17.2728H2.27271H17.7273H18.1818C18.683 17.2727 19.0909 17.6807 19.0909 18.1818ZM2.72727 16.3636V8.18182H4.54547V16.3636H2.72727ZM5.45455 16.3636V8.18182H8.18182V16.3636H5.45455ZM9.0909 16.3636V8.18182H10.9091V16.3636H9.0909ZM11.8182 16.3636V8.18182H14.5455V16.3636H11.8182ZM15.4546 16.3636V8.18182H17.2728V16.3636H15.4546ZM0.909077 7.27274V6.16789L9.56455 1.02583C9.84776 0.870034 10.1487 0.87046 10.4284 1.02272L19.0909 6.16789V7.27274H0.909077Z" fill="#596CF2"/>
</g>
<defs>
<clipPath id="clip0_162_332">
<rect width="20" height="20" fill="white"/>
</clipPath>
</defs>
</svg>
