<svg width="20" height="20" viewBox="0 0 20 20" fill="none" xmlns="http://www.w3.org/2000/svg">
<path d="M17.5 9.16663H5.83333C5.33333 9.16663 5 8.83329 5 8.33329C5 7.83329 5.33333 7.49996 5.83333 7.49996H15.5L13.5833 5.58329C13.25 5.24996 13.25 4.74996 13.5833 4.41663C13.9167 4.08329 14.4167 4.08329 14.75 4.41663L18.0833 7.74996C18.3333 7.99996 18.4167 8.33329 18.25 8.66663C18.1667 8.99996 17.8333 9.16663 17.5 9.16663Z" fill="#596CF2"/>
<path d="M5.83331 15.8333C5.58331 15.8333 5.41665 15.7499 5.24998 15.5833L1.91665 12.2499C1.66665 11.9999 1.58331 11.6666 1.74998 11.3333C1.91665 10.9999 2.16665 10.8333 2.49998 10.8333H14.1666C14.6666 10.8333 15 11.1666 15 11.6666C15 12.1666 14.6666 12.4999 14.1666 12.4999H4.49998L6.41665 14.4166C6.74998 14.7499 6.74998 15.2499 6.41665 15.5833C6.24998 15.7499 6.08331 15.8333 5.83331 15.8333Z" fill="#596CF2"/>
</svg>
